<svg xmlns="http://www.w3.org/2000/svg" xmlns:xlink="http://www.w3.org/1999/xlink" height="800" width="1200" viewBox="-13.89063 -8.723625 120.38546 52.34175"><defs><linearGradient id="a"><stop offset="0" stop-color="#54bcd7"/><stop offset="1" stop-color="#c5e5e2"/></linearGradient><linearGradient gradientUnits="userSpaceOnUse" y2="95.4418" x2="90.8549" y1="105.3172" x1="86.7473" id="b" xlink:href="#a"/></defs><g font-weight="700" font-stretch="condensed" font-family="ITC Avant Garde Gothic Std" word-spacing="4.26" fill="#2d4780"><path d="M3.8276 21.4888h3.4248l.7655 2.8405h3.1024L6.8897 9.4217H4.0694L0 24.3293h3.1024zm2.639-2.8203H4.573l.9468-4.8752zm9.9314-9.529c-3.6665 0-5.4795 3.0622-5.4795 7.7158v.0202c0 4.6738 1.813 7.736 5.4795 7.736 1.2733 0 2.3228-.3704 3.1508-1.0483.0759.2207.1193.4696.1193.7662h3.2098c0-1.163-.6326-2.3936-1.565-3.4952.3761-1.1212.5646-2.456.5646-3.9587 0-4.6737-1.813-7.736-5.4795-7.736zm0 2.8203c1.5714 0 2.337 1.3299 2.337 4.9157 0 .6226-.0246 1.1728-.071 1.6642-1.1968-.7631-2.4302-1.2437-3.3767-1.2437 0 3.0513.4706 3.0382.9203 3.2978.2625.1516.8003.4376 1.3622.8282-.3229.2511-.7118.3688-1.1718.3688-1.5713 0-2.3366-1.3293-2.3366-4.895v-.0203c0-3.5858.7653-4.9157 2.3366-4.9157zm7.1886-2.5381v10.657c0 1.3094.3425 2.4577 1.108 3.2433.7857.8059 2.0146 1.2894 3.8075 1.2894 1.793 0 3.0218-.4835 3.8075-1.2894.7857-.7856 1.108-1.934 1.108-3.2434V9.4216h-3.0621V19.575c0 .7454-.1209 1.2893-.403 1.6318-.3021.3626-.7654.5238-1.4504.5238-.685 0-1.1483-.1612-1.4303-.5238-.3022-.3425-.423-.8864-.423-1.6318V9.4217z" style="line-height:125%;-inkscape-font-specification:'ITC Avant Garde Gothic Std Bold Condensed'" letter-spacing="-.4199"/><path d="M56.214 24.3293h3.0622V12.2421h.705c.7455 0 1.249.1208 1.5714.4029.564.4633.7051 1.0878.7051 1.813 0 .5843-.1612 1.229-.6648 1.7124-.3828.3828-.967.5238-1.5109.564-.2417.0202-.423.0202-.7655.0202l3.2837 7.5747h3.4247l-2.8204-5.9429c.7051-.3828 1.3095-.9871 1.7527-1.9541.3022-.6648.4432-1.4505.4432-2.2563 0-1.4505-.4432-2.5182-1.2087-3.4449-.6447-.7655-1.9944-1.3094-4.1097-1.3094h-3.868zm10.5561 0h3.0621V9.4217h-3.062zm4.8893-14.9076v10.657c0 1.3094.3424 2.4577 1.108 3.2433.7856.8059 2.0145 1.2894 3.8074 1.2894 1.793 0 3.0219-.4835 3.8075-1.2894.7857-.7856 1.108-1.934 1.108-3.2434V9.4216h-3.062V19.575c0 .7454-.121 1.2893-.403 1.6318-.3022.3626-.7655.5238-1.4505.5238-.685 0-1.1483-.1612-1.4303-.5238-.3022-.3425-.423-.8864-.423-1.6318V9.4217zm11.1138 10.2137c0 3.1427 1.4908 4.976 4.8953 4.976 2.8405 0 4.9357-1.7124 4.9357-4.5126 0-2.8405-1.6117-3.8478-3.2233-4.4925-1.6116-.6446-3.2233-.9065-3.2233-2.3167 0-.9065.5842-1.6318 1.5512-1.6318.9871 0 1.5915.6447 1.6318 1.7325h2.9815c-.4432-2.9412-1.9742-4.2708-4.7342-4.2708-2.8405 0-4.573 1.8131-4.573 4.6335 0 2.5181 1.6117 3.4448 3.2233 4.0895 1.6116.6245 3.2233.9468 3.2233 2.2966 0 1.0677-.6044 1.7728-1.7325 1.7728-1.3296 0-1.8534-.7253-1.8937-2.2765z" style="line-height:125%;-inkscape-font-specification:'ITC Avant Garde Gothic Std Bold Condensed'" letter-spacing="-1.3059"/></g><g fill-rule="evenodd"><path d="M44.3755 0L30.1668 33.3012l3.7536 1.5933 10.4551-24.6307 8.0316 18.9211 3.6915-1.567z" fill="#57bfda"/><path d="M85.0635 109.8073c5.1216-12.2933 16.2718-22.9313 26.5583-22.9313v-4.303c-13.609 0-25.1028 12.5823-31.2543 25.241l4.696 1.9933z" fill="url(#b)" transform="translate(-34.071 -52.8745) scale(.7993)"/></g></svg>